<?xml version="1.0" encoding="UTF-8" standalone="no"?>
<!DOCTYPE svg PUBLIC "-//W3C//DTD SVG 1.1//EN"
 "http://www.w3.org/Graphics/SVG/1.1/DTD/svg11.dtd">
<!-- Generated by graphviz version 2.50.0 (20211204.2007)
 -->
<!-- Title: G Pages: 1 -->
<svg width="2705pt" height="249pt"
 viewBox="0.00 0.00 2705.00 249.00" xmlns="http://www.w3.org/2000/svg" xmlns:xlink="http://www.w3.org/1999/xlink">
<g id="graph0" class="graph" transform="scale(1 1) rotate(0) translate(4 245)">
<title>G</title>
<polygon fill="#eeeeee" stroke="transparent" points="-4,4 -4,-245 2701,-245 2701,4 -4,4"/>
<g id="clust1" class="cluster">
<title>cluster_inputs</title>
<polygon fill="#eeeeee" stroke="black" stroke-dasharray="5,2" points="8,-157 8,-233 2689,-233 2689,-157 8,-157"/>
<text text-anchor="middle" x="2634.5" y="-164.8" font-family="Times,serif" font-size="14.00">Workflow Inputs</text>
</g>
<g id="clust2" class="cluster">
<title>cluster_outputs</title>
<polygon fill="#eeeeee" stroke="black" stroke-dasharray="5,2" points="980,-8 980,-84 1904,-84 1904,-8 980,-8"/>
<text text-anchor="middle" x="1845" y="-15.8" font-family="Times,serif" font-size="14.00">Workflow Outputs</text>
</g>
<!-- file:///Users/eller/Projects/LivePaper&#45;prototype/CWL/Workflows/multi_workflow.cwl#gndvi_10m -->
<g id="node1" class="node">
<title>file:///Users/eller/Projects/LivePaper&#45;prototype/CWL/Workflows/multi_workflow.cwl#gndvi_10m</title>
<polygon fill="lightgoldenrodyellow" stroke="black" points="169.5,-112.5 169.5,-148.5 248.5,-148.5 248.5,-112.5 169.5,-112.5"/>
<text text-anchor="middle" x="209" y="-126.8" font-family="Times,serif" font-size="14.00">gndvi_10m</text>
</g>
<!-- file:///Users/eller/Projects/LivePaper&#45;prototype/CWL/Workflows/multi_workflow.cwl#gndvi_10m_tiff -->
<g id="node2" class="node">
<title>file:///Users/eller/Projects/LivePaper&#45;prototype/CWL/Workflows/multi_workflow.cwl#gndvi_10m_tiff</title>
<polygon fill="#94ddf4" stroke="black" points="988,-39.5 988,-75.5 1090,-75.5 1090,-39.5 988,-39.5"/>
<text text-anchor="middle" x="1039" y="-53.8" font-family="Times,serif" font-size="14.00">gndvi_10m_tiff</text>
</g>
<!-- file:///Users/eller/Projects/LivePaper&#45;prototype/CWL/Workflows/multi_workflow.cwl#gndvi_10m&#45;&gt;file:///Users/eller/Projects/LivePaper&#45;prototype/CWL/Workflows/multi_workflow.cwl#gndvi_10m_tiff -->
<g id="edge1" class="edge">
<title>file:///Users/eller/Projects/LivePaper&#45;prototype/CWL/Workflows/multi_workflow.cwl#gndvi_10m&#45;&gt;file:///Users/eller/Projects/LivePaper&#45;prototype/CWL/Workflows/multi_workflow.cwl#gndvi_10m_tiff</title>
<path fill="none" stroke="black" d="M248.75,-126.1C382.36,-114.67 815.93,-77.58 977.54,-63.76"/>
<polygon fill="black" stroke="black" points="978.12,-67.22 987.78,-62.88 977.52,-60.25 978.12,-67.22"/>
</g>
<!-- file:///Users/eller/Projects/LivePaper&#45;prototype/CWL/Workflows/multi_workflow.cwl#gndvi_10m_tiff&#45;&gt;file:///Users/eller/Projects/LivePaper&#45;prototype/CWL/Workflows/multi_workflow.cwl#gndvi_10m_tiff -->
<g id="edge29" class="edge">
<title>file:///Users/eller/Projects/LivePaper&#45;prototype/CWL/Workflows/multi_workflow.cwl#gndvi_10m_tiff&#45;&gt;file:///Users/eller/Projects/LivePaper&#45;prototype/CWL/Workflows/multi_workflow.cwl#gndvi_10m_tiff</title>
<path fill="none" stroke="black" d="M1090.15,-70.49C1100.55,-69.07 1108,-64.74 1108,-57.5 1108,-52.86 1104.94,-49.42 1100.01,-47.17"/>
<polygon fill="black" stroke="black" points="1100.72,-43.73 1090.15,-44.51 1098.9,-50.49 1100.72,-43.73"/>
</g>
<!-- file:///Users/eller/Projects/LivePaper&#45;prototype/CWL/Workflows/multi_workflow.cwl#gndvi_20m -->
<g id="node3" class="node">
<title>file:///Users/eller/Projects/LivePaper&#45;prototype/CWL/Workflows/multi_workflow.cwl#gndvi_20m</title>
<polygon fill="lightgoldenrodyellow" stroke="black" points="570.5,-112.5 570.5,-148.5 649.5,-148.5 649.5,-112.5 570.5,-112.5"/>
<text text-anchor="middle" x="610" y="-126.8" font-family="Times,serif" font-size="14.00">gndvi_20m</text>
</g>
<!-- file:///Users/eller/Projects/LivePaper&#45;prototype/CWL/Workflows/multi_workflow.cwl#gndvi_20m_tiff -->
<g id="node4" class="node">
<title>file:///Users/eller/Projects/LivePaper&#45;prototype/CWL/Workflows/multi_workflow.cwl#gndvi_20m_tiff</title>
<polygon fill="#94ddf4" stroke="black" points="1126,-39.5 1126,-75.5 1228,-75.5 1228,-39.5 1126,-39.5"/>
<text text-anchor="middle" x="1177" y="-53.8" font-family="Times,serif" font-size="14.00">gndvi_20m_tiff</text>
</g>
<!-- file:///Users/eller/Projects/LivePaper&#45;prototype/CWL/Workflows/multi_workflow.cwl#gndvi_20m&#45;&gt;file:///Users/eller/Projects/LivePaper&#45;prototype/CWL/Workflows/multi_workflow.cwl#gndvi_20m_tiff -->
<g id="edge2" class="edge">
<title>file:///Users/eller/Projects/LivePaper&#45;prototype/CWL/Workflows/multi_workflow.cwl#gndvi_20m&#45;&gt;file:///Users/eller/Projects/LivePaper&#45;prototype/CWL/Workflows/multi_workflow.cwl#gndvi_20m_tiff</title>
<path fill="none" stroke="black" d="M649.8,-126.27C765.41,-116.84 1094.42,-89.66 1117,-84 1122.02,-82.74 1127.16,-81.12 1132.21,-79.3"/>
<polygon fill="black" stroke="black" points="1133.71,-82.48 1141.78,-75.62 1131.19,-75.95 1133.71,-82.48"/>
</g>
<!-- file:///Users/eller/Projects/LivePaper&#45;prototype/CWL/Workflows/multi_workflow.cwl#gndvi_20m_tiff&#45;&gt;file:///Users/eller/Projects/LivePaper&#45;prototype/CWL/Workflows/multi_workflow.cwl#gndvi_20m_tiff -->
<g id="edge30" class="edge">
<title>file:///Users/eller/Projects/LivePaper&#45;prototype/CWL/Workflows/multi_workflow.cwl#gndvi_20m_tiff&#45;&gt;file:///Users/eller/Projects/LivePaper&#45;prototype/CWL/Workflows/multi_workflow.cwl#gndvi_20m_tiff</title>
<path fill="none" stroke="black" d="M1228.15,-70.49C1238.55,-69.07 1246,-64.74 1246,-57.5 1246,-52.86 1242.94,-49.42 1238.01,-47.17"/>
<polygon fill="black" stroke="black" points="1238.72,-43.73 1228.15,-44.51 1236.9,-50.49 1238.72,-43.73"/>
</g>
<!-- file:///Users/eller/Projects/LivePaper&#45;prototype/CWL/Workflows/multi_workflow.cwl#ndre_20m -->
<g id="node5" class="node">
<title>file:///Users/eller/Projects/LivePaper&#45;prototype/CWL/Workflows/multi_workflow.cwl#ndre_20m</title>
<polygon fill="lightgoldenrodyellow" stroke="black" points="964,-112.5 964,-148.5 1036,-148.5 1036,-112.5 964,-112.5"/>
<text text-anchor="middle" x="1000" y="-126.8" font-family="Times,serif" font-size="14.00">ndre_20m</text>
</g>
<!-- file:///Users/eller/Projects/LivePaper&#45;prototype/CWL/Workflows/multi_workflow.cwl#ndre_20m_tiff -->
<g id="node6" class="node">
<title>file:///Users/eller/Projects/LivePaper&#45;prototype/CWL/Workflows/multi_workflow.cwl#ndre_20m_tiff</title>
<polygon fill="#94ddf4" stroke="black" points="1264.5,-39.5 1264.5,-75.5 1359.5,-75.5 1359.5,-39.5 1264.5,-39.5"/>
<text text-anchor="middle" x="1312" y="-53.8" font-family="Times,serif" font-size="14.00">ndre_20m_tiff</text>
</g>
<!-- file:///Users/eller/Projects/LivePaper&#45;prototype/CWL/Workflows/multi_workflow.cwl#ndre_20m&#45;&gt;file:///Users/eller/Projects/LivePaper&#45;prototype/CWL/Workflows/multi_workflow.cwl#ndre_20m_tiff -->
<g id="edge3" class="edge">
<title>file:///Users/eller/Projects/LivePaper&#45;prototype/CWL/Workflows/multi_workflow.cwl#ndre_20m&#45;&gt;file:///Users/eller/Projects/LivePaper&#45;prototype/CWL/Workflows/multi_workflow.cwl#ndre_20m_tiff</title>
<path fill="none" stroke="black" d="M1036.13,-125.87C1086.15,-120.2 1178.93,-107.42 1255,-84 1259.31,-82.67 1263.73,-81.1 1268.1,-79.4"/>
<polygon fill="black" stroke="black" points="1269.63,-82.56 1277.55,-75.52 1266.97,-76.09 1269.63,-82.56"/>
</g>
<!-- file:///Users/eller/Projects/LivePaper&#45;prototype/CWL/Workflows/multi_workflow.cwl#ndre_20m_tiff&#45;&gt;file:///Users/eller/Projects/LivePaper&#45;prototype/CWL/Workflows/multi_workflow.cwl#ndre_20m_tiff -->
<g id="edge31" class="edge">
<title>file:///Users/eller/Projects/LivePaper&#45;prototype/CWL/Workflows/multi_workflow.cwl#ndre_20m_tiff&#45;&gt;file:///Users/eller/Projects/LivePaper&#45;prototype/CWL/Workflows/multi_workflow.cwl#ndre_20m_tiff</title>
<path fill="none" stroke="black" d="M1359.69,-70.6C1370.01,-69.32 1377.5,-64.95 1377.5,-57.5 1377.5,-52.73 1374.43,-49.22 1369.51,-46.98"/>
<polygon fill="black" stroke="black" points="1370.25,-43.55 1359.69,-44.4 1368.47,-50.32 1370.25,-43.55"/>
</g>
<!-- file:///Users/eller/Projects/LivePaper&#45;prototype/CWL/Workflows/multi_workflow.cwl#ndvi_10m -->
<g id="node7" class="node">
<title>file:///Users/eller/Projects/LivePaper&#45;prototype/CWL/Workflows/multi_workflow.cwl#ndvi_10m</title>
<polygon fill="lightgoldenrodyellow" stroke="black" points="1346,-112.5 1346,-148.5 1418,-148.5 1418,-112.5 1346,-112.5"/>
<text text-anchor="middle" x="1382" y="-126.8" font-family="Times,serif" font-size="14.00">ndvi_10m</text>
</g>
<!-- file:///Users/eller/Projects/LivePaper&#45;prototype/CWL/Workflows/multi_workflow.cwl#ndvi_10m_tiff -->
<g id="node8" class="node">
<title>file:///Users/eller/Projects/LivePaper&#45;prototype/CWL/Workflows/multi_workflow.cwl#ndvi_10m_tiff</title>
<polygon fill="#94ddf4" stroke="black" points="1395.5,-39.5 1395.5,-75.5 1490.5,-75.5 1490.5,-39.5 1395.5,-39.5"/>
<text text-anchor="middle" x="1443" y="-53.8" font-family="Times,serif" font-size="14.00">ndvi_10m_tiff</text>
</g>
<!-- file:///Users/eller/Projects/LivePaper&#45;prototype/CWL/Workflows/multi_workflow.cwl#ndvi_10m&#45;&gt;file:///Users/eller/Projects/LivePaper&#45;prototype/CWL/Workflows/multi_workflow.cwl#ndvi_10m_tiff -->
<g id="edge4" class="edge">
<title>file:///Users/eller/Projects/LivePaper&#45;prototype/CWL/Workflows/multi_workflow.cwl#ndvi_10m&#45;&gt;file:///Users/eller/Projects/LivePaper&#45;prototype/CWL/Workflows/multi_workflow.cwl#ndvi_10m_tiff</title>
<path fill="none" stroke="black" d="M1396.77,-112.31C1404.26,-103.59 1413.5,-92.84 1421.74,-83.25"/>
<polygon fill="black" stroke="black" points="1424.51,-85.39 1428.37,-75.53 1419.2,-80.83 1424.51,-85.39"/>
</g>
<!-- file:///Users/eller/Projects/LivePaper&#45;prototype/CWL/Workflows/multi_workflow.cwl#ndvi_10m_tiff&#45;&gt;file:///Users/eller/Projects/LivePaper&#45;prototype/CWL/Workflows/multi_workflow.cwl#ndvi_10m_tiff -->
<g id="edge32" class="edge">
<title>file:///Users/eller/Projects/LivePaper&#45;prototype/CWL/Workflows/multi_workflow.cwl#ndvi_10m_tiff&#45;&gt;file:///Users/eller/Projects/LivePaper&#45;prototype/CWL/Workflows/multi_workflow.cwl#ndvi_10m_tiff</title>
<path fill="none" stroke="black" d="M1490.69,-70.6C1501.01,-69.32 1508.5,-64.95 1508.5,-57.5 1508.5,-52.73 1505.43,-49.22 1500.51,-46.98"/>
<polygon fill="black" stroke="black" points="1501.25,-43.55 1490.69,-44.4 1499.47,-50.32 1501.25,-43.55"/>
</g>
<!-- file:///Users/eller/Projects/LivePaper&#45;prototype/CWL/Workflows/multi_workflow.cwl#ndvi_20m -->
<g id="node9" class="node">
<title>file:///Users/eller/Projects/LivePaper&#45;prototype/CWL/Workflows/multi_workflow.cwl#ndvi_20m</title>
<polygon fill="lightgoldenrodyellow" stroke="black" points="1598,-112.5 1598,-148.5 1670,-148.5 1670,-112.5 1598,-112.5"/>
<text text-anchor="middle" x="1634" y="-126.8" font-family="Times,serif" font-size="14.00">ndvi_20m</text>
</g>
<!-- file:///Users/eller/Projects/LivePaper&#45;prototype/CWL/Workflows/multi_workflow.cwl#ndvi_20m_tiff -->
<g id="node10" class="node">
<title>file:///Users/eller/Projects/LivePaper&#45;prototype/CWL/Workflows/multi_workflow.cwl#ndvi_20m_tiff</title>
<polygon fill="#94ddf4" stroke="black" points="1526.5,-39.5 1526.5,-75.5 1621.5,-75.5 1621.5,-39.5 1526.5,-39.5"/>
<text text-anchor="middle" x="1574" y="-53.8" font-family="Times,serif" font-size="14.00">ndvi_20m_tiff</text>
</g>
<!-- file:///Users/eller/Projects/LivePaper&#45;prototype/CWL/Workflows/multi_workflow.cwl#ndvi_20m&#45;&gt;file:///Users/eller/Projects/LivePaper&#45;prototype/CWL/Workflows/multi_workflow.cwl#ndvi_20m_tiff -->
<g id="edge5" class="edge">
<title>file:///Users/eller/Projects/LivePaper&#45;prototype/CWL/Workflows/multi_workflow.cwl#ndvi_20m&#45;&gt;file:///Users/eller/Projects/LivePaper&#45;prototype/CWL/Workflows/multi_workflow.cwl#ndvi_20m_tiff</title>
<path fill="none" stroke="black" d="M1619.48,-112.31C1612.11,-103.59 1603.02,-92.84 1594.91,-83.25"/>
<polygon fill="black" stroke="black" points="1597.52,-80.91 1588.39,-75.53 1592.17,-85.43 1597.52,-80.91"/>
</g>
<!-- file:///Users/eller/Projects/LivePaper&#45;prototype/CWL/Workflows/multi_workflow.cwl#ndvi_20m_tiff&#45;&gt;file:///Users/eller/Projects/LivePaper&#45;prototype/CWL/Workflows/multi_workflow.cwl#ndvi_20m_tiff -->
<g id="edge33" class="edge">
<title>file:///Users/eller/Projects/LivePaper&#45;prototype/CWL/Workflows/multi_workflow.cwl#ndvi_20m_tiff&#45;&gt;file:///Users/eller/Projects/LivePaper&#45;prototype/CWL/Workflows/multi_workflow.cwl#ndvi_20m_tiff</title>
<path fill="none" stroke="black" d="M1621.69,-70.6C1632.01,-69.32 1639.5,-64.95 1639.5,-57.5 1639.5,-52.73 1636.43,-49.22 1631.51,-46.98"/>
<polygon fill="black" stroke="black" points="1632.25,-43.55 1621.69,-44.4 1630.47,-50.32 1632.25,-43.55"/>
</g>
<!-- file:///Users/eller/Projects/LivePaper&#45;prototype/CWL/Workflows/multi_workflow.cwl#reci_10m -->
<g id="node11" class="node">
<title>file:///Users/eller/Projects/LivePaper&#45;prototype/CWL/Workflows/multi_workflow.cwl#reci_10m</title>
<polygon fill="lightgoldenrodyellow" stroke="black" points="1980,-112.5 1980,-148.5 2048,-148.5 2048,-112.5 1980,-112.5"/>
<text text-anchor="middle" x="2014" y="-126.8" font-family="Times,serif" font-size="14.00">reci_10m</text>
</g>
<!-- file:///Users/eller/Projects/LivePaper&#45;prototype/CWL/Workflows/multi_workflow.cwl#reci_10m_tiff -->
<g id="node12" class="node">
<title>file:///Users/eller/Projects/LivePaper&#45;prototype/CWL/Workflows/multi_workflow.cwl#reci_10m_tiff</title>
<polygon fill="#94ddf4" stroke="black" points="1658,-39.5 1658,-75.5 1750,-75.5 1750,-39.5 1658,-39.5"/>
<text text-anchor="middle" x="1704" y="-53.8" font-family="Times,serif" font-size="14.00">reci_10m_tiff</text>
</g>
<!-- file:///Users/eller/Projects/LivePaper&#45;prototype/CWL/Workflows/multi_workflow.cwl#reci_10m&#45;&gt;file:///Users/eller/Projects/LivePaper&#45;prototype/CWL/Workflows/multi_workflow.cwl#reci_10m_tiff -->
<g id="edge6" class="edge">
<title>file:///Users/eller/Projects/LivePaper&#45;prototype/CWL/Workflows/multi_workflow.cwl#reci_10m&#45;&gt;file:///Users/eller/Projects/LivePaper&#45;prototype/CWL/Workflows/multi_workflow.cwl#reci_10m_tiff</title>
<path fill="none" stroke="black" d="M1979.89,-124.56C1933.52,-117.48 1848.21,-103.16 1777,-84 1771.27,-82.46 1765.34,-80.69 1759.46,-78.82"/>
<polygon fill="black" stroke="black" points="1760.22,-75.38 1749.63,-75.59 1758.04,-82.03 1760.22,-75.38"/>
</g>
<!-- file:///Users/eller/Projects/LivePaper&#45;prototype/CWL/Workflows/multi_workflow.cwl#reci_10m_tiff&#45;&gt;file:///Users/eller/Projects/LivePaper&#45;prototype/CWL/Workflows/multi_workflow.cwl#reci_10m_tiff -->
<g id="edge34" class="edge">
<title>file:///Users/eller/Projects/LivePaper&#45;prototype/CWL/Workflows/multi_workflow.cwl#reci_10m_tiff&#45;&gt;file:///Users/eller/Projects/LivePaper&#45;prototype/CWL/Workflows/multi_workflow.cwl#reci_10m_tiff</title>
<path fill="none" stroke="black" d="M1750.02,-70.67C1760.41,-69.48 1768,-65.09 1768,-57.5 1768,-52.64 1764.88,-49.09 1759.91,-46.85"/>
<polygon fill="black" stroke="black" points="1760.58,-43.41 1750.02,-44.33 1758.85,-50.19 1760.58,-43.41"/>
</g>
<!-- file:///Users/eller/Projects/LivePaper&#45;prototype/CWL/Workflows/multi_workflow.cwl#reci_20m -->
<g id="node13" class="node">
<title>file:///Users/eller/Projects/LivePaper&#45;prototype/CWL/Workflows/multi_workflow.cwl#reci_20m</title>
<polygon fill="lightgoldenrodyellow" stroke="black" points="2348,-112.5 2348,-148.5 2416,-148.5 2416,-112.5 2348,-112.5"/>
<text text-anchor="middle" x="2382" y="-126.8" font-family="Times,serif" font-size="14.00">reci_20m</text>
</g>
<!-- file:///Users/eller/Projects/LivePaper&#45;prototype/CWL/Workflows/multi_workflow.cwl#reci_20m_tiff -->
<g id="node14" class="node">
<title>file:///Users/eller/Projects/LivePaper&#45;prototype/CWL/Workflows/multi_workflow.cwl#reci_20m_tiff</title>
<polygon fill="#94ddf4" stroke="black" points="1786,-39.5 1786,-75.5 1878,-75.5 1878,-39.5 1786,-39.5"/>
<text text-anchor="middle" x="1832" y="-53.8" font-family="Times,serif" font-size="14.00">reci_20m_tiff</text>
</g>
<!-- file:///Users/eller/Projects/LivePaper&#45;prototype/CWL/Workflows/multi_workflow.cwl#reci_20m&#45;&gt;file:///Users/eller/Projects/LivePaper&#45;prototype/CWL/Workflows/multi_workflow.cwl#reci_20m_tiff -->
<g id="edge7" class="edge">
<title>file:///Users/eller/Projects/LivePaper&#45;prototype/CWL/Workflows/multi_workflow.cwl#reci_20m&#45;&gt;file:///Users/eller/Projects/LivePaper&#45;prototype/CWL/Workflows/multi_workflow.cwl#reci_20m_tiff</title>
<path fill="none" stroke="black" d="M2347.6,-125.06C2255.35,-113.15 2001.82,-80.42 1888.28,-65.76"/>
<polygon fill="black" stroke="black" points="1888.43,-62.26 1878.06,-64.45 1887.53,-69.2 1888.43,-62.26"/>
</g>
<!-- file:///Users/eller/Projects/LivePaper&#45;prototype/CWL/Workflows/multi_workflow.cwl#reci_20m_tiff&#45;&gt;file:///Users/eller/Projects/LivePaper&#45;prototype/CWL/Workflows/multi_workflow.cwl#reci_20m_tiff -->
<g id="edge35" class="edge">
<title>file:///Users/eller/Projects/LivePaper&#45;prototype/CWL/Workflows/multi_workflow.cwl#reci_20m_tiff&#45;&gt;file:///Users/eller/Projects/LivePaper&#45;prototype/CWL/Workflows/multi_workflow.cwl#reci_20m_tiff</title>
<path fill="none" stroke="black" d="M1878.02,-70.67C1888.41,-69.48 1896,-65.09 1896,-57.5 1896,-52.64 1892.88,-49.09 1887.91,-46.85"/>
<polygon fill="black" stroke="black" points="1888.58,-43.41 1878.02,-44.33 1886.85,-50.19 1888.58,-43.41"/>
</g>
<!-- file:///Users/eller/Projects/LivePaper&#45;prototype/CWL/Workflows/multi_workflow.cwl#bands_gndvi_10m -->
<g id="node15" class="node">
<title>file:///Users/eller/Projects/LivePaper&#45;prototype/CWL/Workflows/multi_workflow.cwl#bands_gndvi_10m</title>
<polygon fill="#94ddf4" stroke="black" points="150.5,-188.5 150.5,-224.5 267.5,-224.5 267.5,-188.5 150.5,-188.5"/>
<text text-anchor="middle" x="209" y="-202.8" font-family="Times,serif" font-size="14.00">bands_gndvi_10m</text>
</g>
<!-- file:///Users/eller/Projects/LivePaper&#45;prototype/CWL/Workflows/multi_workflow.cwl#bands_gndvi_10m&#45;&gt;file:///Users/eller/Projects/LivePaper&#45;prototype/CWL/Workflows/multi_workflow.cwl#gndvi_10m -->
<g id="edge8" class="edge">
<title>file:///Users/eller/Projects/LivePaper&#45;prototype/CWL/Workflows/multi_workflow.cwl#bands_gndvi_10m&#45;&gt;file:///Users/eller/Projects/LivePaper&#45;prototype/CWL/Workflows/multi_workflow.cwl#gndvi_10m</title>
<path fill="none" stroke="black" d="M209,-188.34C209,-179.56 209,-168.66 209,-158.77"/>
<polygon fill="black" stroke="black" points="212.5,-158.57 209,-148.57 205.5,-158.57 212.5,-158.57"/>
</g>
<!-- file:///Users/eller/Projects/LivePaper&#45;prototype/CWL/Workflows/multi_workflow.cwl#index_gndvi_10m -->
<g id="node16" class="node">
<title>file:///Users/eller/Projects/LivePaper&#45;prototype/CWL/Workflows/multi_workflow.cwl#index_gndvi_10m</title>
<polygon fill="#94ddf4" stroke="black" points="16,-188.5 16,-224.5 132,-224.5 132,-188.5 16,-188.5"/>
<text text-anchor="middle" x="74" y="-202.8" font-family="Times,serif" font-size="14.00">index_gndvi_10m</text>
</g>
<!-- file:///Users/eller/Projects/LivePaper&#45;prototype/CWL/Workflows/multi_workflow.cwl#index_gndvi_10m&#45;&gt;file:///Users/eller/Projects/LivePaper&#45;prototype/CWL/Workflows/multi_workflow.cwl#gndvi_10m -->
<g id="edge9" class="edge">
<title>file:///Users/eller/Projects/LivePaper&#45;prototype/CWL/Workflows/multi_workflow.cwl#index_gndvi_10m&#45;&gt;file:///Users/eller/Projects/LivePaper&#45;prototype/CWL/Workflows/multi_workflow.cwl#gndvi_10m</title>
<path fill="none" stroke="black" d="M94.47,-188.47C107.27,-178.39 124.43,-165.9 141,-157 146.97,-153.79 153.43,-150.81 159.91,-148.1"/>
<polygon fill="black" stroke="black" points="161.38,-151.28 169.37,-144.32 158.79,-144.78 161.38,-151.28"/>
</g>
<!-- file:///Users/eller/Projects/LivePaper&#45;prototype/CWL/Workflows/multi_workflow.cwl#color_gndvi_10m -->
<g id="node17" class="node">
<title>file:///Users/eller/Projects/LivePaper&#45;prototype/CWL/Workflows/multi_workflow.cwl#color_gndvi_10m</title>
<polygon fill="#94ddf4" stroke="black" points="285.5,-188.5 285.5,-224.5 398.5,-224.5 398.5,-188.5 285.5,-188.5"/>
<text text-anchor="middle" x="342" y="-202.8" font-family="Times,serif" font-size="14.00">color_gndvi_10m</text>
</g>
<!-- file:///Users/eller/Projects/LivePaper&#45;prototype/CWL/Workflows/multi_workflow.cwl#color_gndvi_10m&#45;&gt;file:///Users/eller/Projects/LivePaper&#45;prototype/CWL/Workflows/multi_workflow.cwl#gndvi_10m_tiff -->
<g id="edge10" class="edge">
<title>file:///Users/eller/Projects/LivePaper&#45;prototype/CWL/Workflows/multi_workflow.cwl#color_gndvi_10m&#45;&gt;file:///Users/eller/Projects/LivePaper&#45;prototype/CWL/Workflows/multi_workflow.cwl#gndvi_10m_tiff</title>
<path fill="none" stroke="black" d="M360.99,-188.46C373.35,-178.12 390.24,-165.36 407,-157 470.81,-125.17 491.08,-126.02 561,-112 709.02,-82.32 886.35,-67.88 977.79,-61.96"/>
<polygon fill="black" stroke="black" points="978.21,-65.44 987.97,-61.31 977.77,-58.45 978.21,-65.44"/>
</g>
<!-- file:///Users/eller/Projects/LivePaper&#45;prototype/CWL/Workflows/multi_workflow.cwl#bands_gndvi_20m -->
<g id="node18" class="node">
<title>file:///Users/eller/Projects/LivePaper&#45;prototype/CWL/Workflows/multi_workflow.cwl#bands_gndvi_20m</title>
<polygon fill="#94ddf4" stroke="black" points="416.5,-188.5 416.5,-224.5 533.5,-224.5 533.5,-188.5 416.5,-188.5"/>
<text text-anchor="middle" x="475" y="-202.8" font-family="Times,serif" font-size="14.00">bands_gndvi_20m</text>
</g>
<!-- file:///Users/eller/Projects/LivePaper&#45;prototype/CWL/Workflows/multi_workflow.cwl#bands_gndvi_20m&#45;&gt;file:///Users/eller/Projects/LivePaper&#45;prototype/CWL/Workflows/multi_workflow.cwl#gndvi_20m -->
<g id="edge11" class="edge">
<title>file:///Users/eller/Projects/LivePaper&#45;prototype/CWL/Workflows/multi_workflow.cwl#bands_gndvi_20m&#45;&gt;file:///Users/eller/Projects/LivePaper&#45;prototype/CWL/Workflows/multi_workflow.cwl#gndvi_20m</title>
<path fill="none" stroke="black" d="M496.13,-188.29C509.11,-178.27 526.38,-165.9 543,-157 548.62,-153.99 554.67,-151.17 560.75,-148.57"/>
<polygon fill="black" stroke="black" points="562.34,-151.71 570.28,-144.69 559.7,-145.22 562.34,-151.71"/>
</g>
<!-- file:///Users/eller/Projects/LivePaper&#45;prototype/CWL/Workflows/multi_workflow.cwl#index_gndvi_20m -->
<g id="node19" class="node">
<title>file:///Users/eller/Projects/LivePaper&#45;prototype/CWL/Workflows/multi_workflow.cwl#index_gndvi_20m</title>
<polygon fill="#94ddf4" stroke="black" points="552,-188.5 552,-224.5 668,-224.5 668,-188.5 552,-188.5"/>
<text text-anchor="middle" x="610" y="-202.8" font-family="Times,serif" font-size="14.00">index_gndvi_20m</text>
</g>
<!-- file:///Users/eller/Projects/LivePaper&#45;prototype/CWL/Workflows/multi_workflow.cwl#index_gndvi_20m&#45;&gt;file:///Users/eller/Projects/LivePaper&#45;prototype/CWL/Workflows/multi_workflow.cwl#gndvi_20m -->
<g id="edge12" class="edge">
<title>file:///Users/eller/Projects/LivePaper&#45;prototype/CWL/Workflows/multi_workflow.cwl#index_gndvi_20m&#45;&gt;file:///Users/eller/Projects/LivePaper&#45;prototype/CWL/Workflows/multi_workflow.cwl#gndvi_20m</title>
<path fill="none" stroke="black" d="M610,-188.34C610,-179.56 610,-168.66 610,-158.77"/>
<polygon fill="black" stroke="black" points="613.5,-158.57 610,-148.57 606.5,-158.57 613.5,-158.57"/>
</g>
<!-- file:///Users/eller/Projects/LivePaper&#45;prototype/CWL/Workflows/multi_workflow.cwl#color_gndvi_20m -->
<g id="node20" class="node">
<title>file:///Users/eller/Projects/LivePaper&#45;prototype/CWL/Workflows/multi_workflow.cwl#color_gndvi_20m</title>
<polygon fill="#94ddf4" stroke="black" points="686.5,-188.5 686.5,-224.5 799.5,-224.5 799.5,-188.5 686.5,-188.5"/>
<text text-anchor="middle" x="743" y="-202.8" font-family="Times,serif" font-size="14.00">color_gndvi_20m</text>
</g>
<!-- file:///Users/eller/Projects/LivePaper&#45;prototype/CWL/Workflows/multi_workflow.cwl#color_gndvi_20m&#45;&gt;file:///Users/eller/Projects/LivePaper&#45;prototype/CWL/Workflows/multi_workflow.cwl#gndvi_20m_tiff -->
<g id="edge13" class="edge">
<title>file:///Users/eller/Projects/LivePaper&#45;prototype/CWL/Workflows/multi_workflow.cwl#color_gndvi_20m&#45;&gt;file:///Users/eller/Projects/LivePaper&#45;prototype/CWL/Workflows/multi_workflow.cwl#gndvi_20m_tiff</title>
<path fill="none" stroke="black" d="M762.31,-188.3C774.66,-178.03 791.42,-165.4 808,-157 868.95,-126.11 888.54,-127.85 955,-112 1026.07,-95.05 1046.91,-104.65 1117,-84 1121.64,-82.63 1126.41,-81.01 1131.12,-79.26"/>
<polygon fill="black" stroke="black" points="1132.65,-82.42 1140.68,-75.51 1130.1,-75.9 1132.65,-82.42"/>
</g>
<!-- file:///Users/eller/Projects/LivePaper&#45;prototype/CWL/Workflows/multi_workflow.cwl#bands_ndre_20m -->
<g id="node21" class="node">
<title>file:///Users/eller/Projects/LivePaper&#45;prototype/CWL/Workflows/multi_workflow.cwl#bands_ndre_20m</title>
<polygon fill="#94ddf4" stroke="black" points="945,-188.5 945,-224.5 1055,-224.5 1055,-188.5 945,-188.5"/>
<text text-anchor="middle" x="1000" y="-202.8" font-family="Times,serif" font-size="14.00">bands_ndre_20m</text>
</g>
<!-- file:///Users/eller/Projects/LivePaper&#45;prototype/CWL/Workflows/multi_workflow.cwl#bands_ndre_20m&#45;&gt;file:///Users/eller/Projects/LivePaper&#45;prototype/CWL/Workflows/multi_workflow.cwl#ndre_20m -->
<g id="edge14" class="edge">
<title>file:///Users/eller/Projects/LivePaper&#45;prototype/CWL/Workflows/multi_workflow.cwl#bands_ndre_20m&#45;&gt;file:///Users/eller/Projects/LivePaper&#45;prototype/CWL/Workflows/multi_workflow.cwl#ndre_20m</title>
<path fill="none" stroke="black" d="M1000,-188.34C1000,-179.56 1000,-168.66 1000,-158.77"/>
<polygon fill="black" stroke="black" points="1003.5,-158.57 1000,-148.57 996.5,-158.57 1003.5,-158.57"/>
</g>
<!-- file:///Users/eller/Projects/LivePaper&#45;prototype/CWL/Workflows/multi_workflow.cwl#index_ndre_20m -->
<g id="node22" class="node">
<title>file:///Users/eller/Projects/LivePaper&#45;prototype/CWL/Workflows/multi_workflow.cwl#index_ndre_20m</title>
<polygon fill="#94ddf4" stroke="black" points="817.5,-188.5 817.5,-224.5 926.5,-224.5 926.5,-188.5 817.5,-188.5"/>
<text text-anchor="middle" x="872" y="-202.8" font-family="Times,serif" font-size="14.00">index_ndre_20m</text>
</g>
<!-- file:///Users/eller/Projects/LivePaper&#45;prototype/CWL/Workflows/multi_workflow.cwl#index_ndre_20m&#45;&gt;file:///Users/eller/Projects/LivePaper&#45;prototype/CWL/Workflows/multi_workflow.cwl#ndre_20m -->
<g id="edge15" class="edge">
<title>file:///Users/eller/Projects/LivePaper&#45;prototype/CWL/Workflows/multi_workflow.cwl#index_ndre_20m&#45;&gt;file:///Users/eller/Projects/LivePaper&#45;prototype/CWL/Workflows/multi_workflow.cwl#ndre_20m</title>
<path fill="none" stroke="black" d="M891.78,-188.29C903.96,-178.28 920.22,-165.91 936,-157 941.88,-153.68 948.28,-150.59 954.68,-147.78"/>
<polygon fill="black" stroke="black" points="956.13,-150.97 964,-143.88 953.42,-144.51 956.13,-150.97"/>
</g>
<!-- file:///Users/eller/Projects/LivePaper&#45;prototype/CWL/Workflows/multi_workflow.cwl#color_ndre_20m -->
<g id="node23" class="node">
<title>file:///Users/eller/Projects/LivePaper&#45;prototype/CWL/Workflows/multi_workflow.cwl#color_ndre_20m</title>
<polygon fill="#94ddf4" stroke="black" points="1073.5,-188.5 1073.5,-224.5 1180.5,-224.5 1180.5,-188.5 1073.5,-188.5"/>
<text text-anchor="middle" x="1127" y="-202.8" font-family="Times,serif" font-size="14.00">color_ndre_20m</text>
</g>
<!-- file:///Users/eller/Projects/LivePaper&#45;prototype/CWL/Workflows/multi_workflow.cwl#color_ndre_20m&#45;&gt;file:///Users/eller/Projects/LivePaper&#45;prototype/CWL/Workflows/multi_workflow.cwl#ndre_20m_tiff -->
<g id="edge16" class="edge">
<title>file:///Users/eller/Projects/LivePaper&#45;prototype/CWL/Workflows/multi_workflow.cwl#color_ndre_20m&#45;&gt;file:///Users/eller/Projects/LivePaper&#45;prototype/CWL/Workflows/multi_workflow.cwl#ndre_20m_tiff</title>
<path fill="none" stroke="black" d="M1148.58,-188.35C1181.73,-162.02 1245.22,-111.56 1282.56,-81.9"/>
<polygon fill="black" stroke="black" points="1284.9,-84.5 1290.55,-75.54 1280.55,-79.02 1284.9,-84.5"/>
</g>
<!-- file:///Users/eller/Projects/LivePaper&#45;prototype/CWL/Workflows/multi_workflow.cwl#bands_ndvi_10m -->
<g id="node24" class="node">
<title>file:///Users/eller/Projects/LivePaper&#45;prototype/CWL/Workflows/multi_workflow.cwl#bands_ndvi_10m</title>
<polygon fill="#94ddf4" stroke="black" points="1199,-188.5 1199,-224.5 1309,-224.5 1309,-188.5 1199,-188.5"/>
<text text-anchor="middle" x="1254" y="-202.8" font-family="Times,serif" font-size="14.00">bands_ndvi_10m</text>
</g>
<!-- file:///Users/eller/Projects/LivePaper&#45;prototype/CWL/Workflows/multi_workflow.cwl#bands_ndvi_10m&#45;&gt;file:///Users/eller/Projects/LivePaper&#45;prototype/CWL/Workflows/multi_workflow.cwl#ndvi_10m -->
<g id="edge17" class="edge">
<title>file:///Users/eller/Projects/LivePaper&#45;prototype/CWL/Workflows/multi_workflow.cwl#bands_ndvi_10m&#45;&gt;file:///Users/eller/Projects/LivePaper&#45;prototype/CWL/Workflows/multi_workflow.cwl#ndvi_10m</title>
<path fill="none" stroke="black" d="M1274.15,-188.34C1286.54,-178.35 1303.05,-165.98 1319,-157 1324.53,-153.88 1330.52,-150.95 1336.53,-148.26"/>
<polygon fill="black" stroke="black" points="1338.11,-151.39 1345.94,-144.25 1335.36,-144.96 1338.11,-151.39"/>
</g>
<!-- file:///Users/eller/Projects/LivePaper&#45;prototype/CWL/Workflows/multi_workflow.cwl#index_ndvi_10m -->
<g id="node25" class="node">
<title>file:///Users/eller/Projects/LivePaper&#45;prototype/CWL/Workflows/multi_workflow.cwl#index_ndvi_10m</title>
<polygon fill="#94ddf4" stroke="black" points="1327.5,-188.5 1327.5,-224.5 1436.5,-224.5 1436.5,-188.5 1327.5,-188.5"/>
<text text-anchor="middle" x="1382" y="-202.8" font-family="Times,serif" font-size="14.00">index_ndvi_10m</text>
</g>
<!-- file:///Users/eller/Projects/LivePaper&#45;prototype/CWL/Workflows/multi_workflow.cwl#index_ndvi_10m&#45;&gt;file:///Users/eller/Projects/LivePaper&#45;prototype/CWL/Workflows/multi_workflow.cwl#ndvi_10m -->
<g id="edge18" class="edge">
<title>file:///Users/eller/Projects/LivePaper&#45;prototype/CWL/Workflows/multi_workflow.cwl#index_ndvi_10m&#45;&gt;file:///Users/eller/Projects/LivePaper&#45;prototype/CWL/Workflows/multi_workflow.cwl#ndvi_10m</title>
<path fill="none" stroke="black" d="M1382,-188.34C1382,-179.56 1382,-168.66 1382,-158.77"/>
<polygon fill="black" stroke="black" points="1385.5,-158.57 1382,-148.57 1378.5,-158.57 1385.5,-158.57"/>
</g>
<!-- file:///Users/eller/Projects/LivePaper&#45;prototype/CWL/Workflows/multi_workflow.cwl#color_ndvi_10m -->
<g id="node26" class="node">
<title>file:///Users/eller/Projects/LivePaper&#45;prototype/CWL/Workflows/multi_workflow.cwl#color_ndvi_10m</title>
<polygon fill="#94ddf4" stroke="black" points="1454.5,-188.5 1454.5,-224.5 1561.5,-224.5 1561.5,-188.5 1454.5,-188.5"/>
<text text-anchor="middle" x="1508" y="-202.8" font-family="Times,serif" font-size="14.00">color_ndvi_10m</text>
</g>
<!-- file:///Users/eller/Projects/LivePaper&#45;prototype/CWL/Workflows/multi_workflow.cwl#color_ndvi_10m&#45;&gt;file:///Users/eller/Projects/LivePaper&#45;prototype/CWL/Workflows/multi_workflow.cwl#ndvi_10m_tiff -->
<g id="edge19" class="edge">
<title>file:///Users/eller/Projects/LivePaper&#45;prototype/CWL/Workflows/multi_workflow.cwl#color_ndvi_10m&#45;&gt;file:///Users/eller/Projects/LivePaper&#45;prototype/CWL/Workflows/multi_workflow.cwl#ndvi_10m_tiff</title>
<path fill="none" stroke="black" d="M1500.42,-188.35C1489.16,-162.9 1467.95,-114.93 1454.7,-84.96"/>
<polygon fill="black" stroke="black" points="1457.78,-83.27 1450.54,-75.54 1451.38,-86.1 1457.78,-83.27"/>
</g>
<!-- file:///Users/eller/Projects/LivePaper&#45;prototype/CWL/Workflows/multi_workflow.cwl#bands_ndvi_20m -->
<g id="node27" class="node">
<title>file:///Users/eller/Projects/LivePaper&#45;prototype/CWL/Workflows/multi_workflow.cwl#bands_ndvi_20m</title>
<polygon fill="#94ddf4" stroke="black" points="1707,-188.5 1707,-224.5 1817,-224.5 1817,-188.5 1707,-188.5"/>
<text text-anchor="middle" x="1762" y="-202.8" font-family="Times,serif" font-size="14.00">bands_ndvi_20m</text>
</g>
<!-- file:///Users/eller/Projects/LivePaper&#45;prototype/CWL/Workflows/multi_workflow.cwl#bands_ndvi_20m&#45;&gt;file:///Users/eller/Projects/LivePaper&#45;prototype/CWL/Workflows/multi_workflow.cwl#ndvi_20m -->
<g id="edge20" class="edge">
<title>file:///Users/eller/Projects/LivePaper&#45;prototype/CWL/Workflows/multi_workflow.cwl#bands_ndvi_20m&#45;&gt;file:///Users/eller/Projects/LivePaper&#45;prototype/CWL/Workflows/multi_workflow.cwl#ndvi_20m</title>
<path fill="none" stroke="black" d="M1742.22,-188.29C1730.04,-178.28 1713.78,-165.91 1698,-157 1692.12,-153.68 1685.72,-150.59 1679.32,-147.78"/>
<polygon fill="black" stroke="black" points="1680.58,-144.51 1670,-143.88 1677.87,-150.97 1680.58,-144.51"/>
</g>
<!-- file:///Users/eller/Projects/LivePaper&#45;prototype/CWL/Workflows/multi_workflow.cwl#index_ndvi_20m -->
<g id="node28" class="node">
<title>file:///Users/eller/Projects/LivePaper&#45;prototype/CWL/Workflows/multi_workflow.cwl#index_ndvi_20m</title>
<polygon fill="#94ddf4" stroke="black" points="1579.5,-188.5 1579.5,-224.5 1688.5,-224.5 1688.5,-188.5 1579.5,-188.5"/>
<text text-anchor="middle" x="1634" y="-202.8" font-family="Times,serif" font-size="14.00">index_ndvi_20m</text>
</g>
<!-- file:///Users/eller/Projects/LivePaper&#45;prototype/CWL/Workflows/multi_workflow.cwl#index_ndvi_20m&#45;&gt;file:///Users/eller/Projects/LivePaper&#45;prototype/CWL/Workflows/multi_workflow.cwl#ndvi_20m -->
<g id="edge21" class="edge">
<title>file:///Users/eller/Projects/LivePaper&#45;prototype/CWL/Workflows/multi_workflow.cwl#index_ndvi_20m&#45;&gt;file:///Users/eller/Projects/LivePaper&#45;prototype/CWL/Workflows/multi_workflow.cwl#ndvi_20m</title>
<path fill="none" stroke="black" d="M1634,-188.34C1634,-179.56 1634,-168.66 1634,-158.77"/>
<polygon fill="black" stroke="black" points="1637.5,-158.57 1634,-148.57 1630.5,-158.57 1637.5,-158.57"/>
</g>
<!-- file:///Users/eller/Projects/LivePaper&#45;prototype/CWL/Workflows/multi_workflow.cwl#color_ndvi_20m -->
<g id="node29" class="node">
<title>file:///Users/eller/Projects/LivePaper&#45;prototype/CWL/Workflows/multi_workflow.cwl#color_ndvi_20m</title>
<polygon fill="#94ddf4" stroke="black" points="1835.5,-188.5 1835.5,-224.5 1942.5,-224.5 1942.5,-188.5 1835.5,-188.5"/>
<text text-anchor="middle" x="1889" y="-202.8" font-family="Times,serif" font-size="14.00">color_ndvi_20m</text>
</g>
<!-- file:///Users/eller/Projects/LivePaper&#45;prototype/CWL/Workflows/multi_workflow.cwl#color_ndvi_20m&#45;&gt;file:///Users/eller/Projects/LivePaper&#45;prototype/CWL/Workflows/multi_workflow.cwl#ndvi_20m_tiff -->
<g id="edge22" class="edge">
<title>file:///Users/eller/Projects/LivePaper&#45;prototype/CWL/Workflows/multi_workflow.cwl#color_ndvi_20m&#45;&gt;file:///Users/eller/Projects/LivePaper&#45;prototype/CWL/Workflows/multi_workflow.cwl#ndvi_20m_tiff</title>
<path fill="none" stroke="black" d="M1869.87,-188.47C1857.87,-178.39 1841.74,-165.9 1826,-157 1791.72,-137.63 1694.27,-101.39 1631.08,-78.68"/>
<polygon fill="black" stroke="black" points="1632.23,-75.37 1621.64,-75.29 1629.87,-81.96 1632.23,-75.37"/>
</g>
<!-- file:///Users/eller/Projects/LivePaper&#45;prototype/CWL/Workflows/multi_workflow.cwl#bands_reci_10m -->
<g id="node30" class="node">
<title>file:///Users/eller/Projects/LivePaper&#45;prototype/CWL/Workflows/multi_workflow.cwl#bands_reci_10m</title>
<polygon fill="#94ddf4" stroke="black" points="1960.5,-188.5 1960.5,-224.5 2067.5,-224.5 2067.5,-188.5 1960.5,-188.5"/>
<text text-anchor="middle" x="2014" y="-202.8" font-family="Times,serif" font-size="14.00">bands_reci_10m</text>
</g>
<!-- file:///Users/eller/Projects/LivePaper&#45;prototype/CWL/Workflows/multi_workflow.cwl#bands_reci_10m&#45;&gt;file:///Users/eller/Projects/LivePaper&#45;prototype/CWL/Workflows/multi_workflow.cwl#reci_10m -->
<g id="edge23" class="edge">
<title>file:///Users/eller/Projects/LivePaper&#45;prototype/CWL/Workflows/multi_workflow.cwl#bands_reci_10m&#45;&gt;file:///Users/eller/Projects/LivePaper&#45;prototype/CWL/Workflows/multi_workflow.cwl#reci_10m</title>
<path fill="none" stroke="black" d="M2014,-188.34C2014,-179.56 2014,-168.66 2014,-158.77"/>
<polygon fill="black" stroke="black" points="2017.5,-158.57 2014,-148.57 2010.5,-158.57 2017.5,-158.57"/>
</g>
<!-- file:///Users/eller/Projects/LivePaper&#45;prototype/CWL/Workflows/multi_workflow.cwl#index_reci_10m -->
<g id="node31" class="node">
<title>file:///Users/eller/Projects/LivePaper&#45;prototype/CWL/Workflows/multi_workflow.cwl#index_reci_10m</title>
<polygon fill="#94ddf4" stroke="black" points="2085.5,-188.5 2085.5,-224.5 2190.5,-224.5 2190.5,-188.5 2085.5,-188.5"/>
<text text-anchor="middle" x="2138" y="-202.8" font-family="Times,serif" font-size="14.00">index_reci_10m</text>
</g>
<!-- file:///Users/eller/Projects/LivePaper&#45;prototype/CWL/Workflows/multi_workflow.cwl#index_reci_10m&#45;&gt;file:///Users/eller/Projects/LivePaper&#45;prototype/CWL/Workflows/multi_workflow.cwl#reci_10m -->
<g id="edge24" class="edge">
<title>file:///Users/eller/Projects/LivePaper&#45;prototype/CWL/Workflows/multi_workflow.cwl#index_reci_10m&#45;&gt;file:///Users/eller/Projects/LivePaper&#45;prototype/CWL/Workflows/multi_workflow.cwl#reci_10m</title>
<path fill="none" stroke="black" d="M2119.52,-188.49C2107.92,-178.42 2092.31,-165.93 2077,-157 2070.97,-153.48 2064.37,-150.23 2057.78,-147.31"/>
<polygon fill="black" stroke="black" points="2058.77,-143.93 2048.2,-143.27 2056.05,-150.38 2058.77,-143.93"/>
</g>
<!-- file:///Users/eller/Projects/LivePaper&#45;prototype/CWL/Workflows/multi_workflow.cwl#color_reci_10m -->
<g id="node32" class="node">
<title>file:///Users/eller/Projects/LivePaper&#45;prototype/CWL/Workflows/multi_workflow.cwl#color_reci_10m</title>
<polygon fill="#94ddf4" stroke="black" points="2208.5,-188.5 2208.5,-224.5 2311.5,-224.5 2311.5,-188.5 2208.5,-188.5"/>
<text text-anchor="middle" x="2260" y="-202.8" font-family="Times,serif" font-size="14.00">color_reci_10m</text>
</g>
<!-- file:///Users/eller/Projects/LivePaper&#45;prototype/CWL/Workflows/multi_workflow.cwl#color_reci_10m&#45;&gt;file:///Users/eller/Projects/LivePaper&#45;prototype/CWL/Workflows/multi_workflow.cwl#reci_10m_tiff -->
<g id="edge25" class="edge">
<title>file:///Users/eller/Projects/LivePaper&#45;prototype/CWL/Workflows/multi_workflow.cwl#color_reci_10m&#45;&gt;file:///Users/eller/Projects/LivePaper&#45;prototype/CWL/Workflows/multi_workflow.cwl#reci_10m_tiff</title>
<path fill="none" stroke="black" d="M2242.37,-188.27C2231.05,-177.99 2215.58,-165.36 2200,-157 2031.88,-66.82 1963.27,-125.24 1777,-84 1770.48,-82.56 1763.74,-80.71 1757.12,-78.68"/>
<polygon fill="black" stroke="black" points="1758.11,-75.32 1747.52,-75.58 1755.96,-81.98 1758.11,-75.32"/>
</g>
<!-- file:///Users/eller/Projects/LivePaper&#45;prototype/CWL/Workflows/multi_workflow.cwl#bands_reci_20m -->
<g id="node33" class="node">
<title>file:///Users/eller/Projects/LivePaper&#45;prototype/CWL/Workflows/multi_workflow.cwl#bands_reci_20m</title>
<polygon fill="#94ddf4" stroke="black" points="2452.5,-188.5 2452.5,-224.5 2559.5,-224.5 2559.5,-188.5 2452.5,-188.5"/>
<text text-anchor="middle" x="2506" y="-202.8" font-family="Times,serif" font-size="14.00">bands_reci_20m</text>
</g>
<!-- file:///Users/eller/Projects/LivePaper&#45;prototype/CWL/Workflows/multi_workflow.cwl#bands_reci_20m&#45;&gt;file:///Users/eller/Projects/LivePaper&#45;prototype/CWL/Workflows/multi_workflow.cwl#reci_20m -->
<g id="edge26" class="edge">
<title>file:///Users/eller/Projects/LivePaper&#45;prototype/CWL/Workflows/multi_workflow.cwl#bands_reci_20m&#45;&gt;file:///Users/eller/Projects/LivePaper&#45;prototype/CWL/Workflows/multi_workflow.cwl#reci_20m</title>
<path fill="none" stroke="black" d="M2486.89,-188.31C2475.1,-178.3 2459.36,-165.94 2444,-157 2438.19,-153.62 2431.84,-150.46 2425.5,-147.61"/>
<polygon fill="black" stroke="black" points="2426.83,-144.37 2416.27,-143.64 2424.07,-150.8 2426.83,-144.37"/>
</g>
<!-- file:///Users/eller/Projects/LivePaper&#45;prototype/CWL/Workflows/multi_workflow.cwl#index_reci_20m -->
<g id="node34" class="node">
<title>file:///Users/eller/Projects/LivePaper&#45;prototype/CWL/Workflows/multi_workflow.cwl#index_reci_20m</title>
<polygon fill="#94ddf4" stroke="black" points="2329.5,-188.5 2329.5,-224.5 2434.5,-224.5 2434.5,-188.5 2329.5,-188.5"/>
<text text-anchor="middle" x="2382" y="-202.8" font-family="Times,serif" font-size="14.00">index_reci_20m</text>
</g>
<!-- file:///Users/eller/Projects/LivePaper&#45;prototype/CWL/Workflows/multi_workflow.cwl#index_reci_20m&#45;&gt;file:///Users/eller/Projects/LivePaper&#45;prototype/CWL/Workflows/multi_workflow.cwl#reci_20m -->
<g id="edge27" class="edge">
<title>file:///Users/eller/Projects/LivePaper&#45;prototype/CWL/Workflows/multi_workflow.cwl#index_reci_20m&#45;&gt;file:///Users/eller/Projects/LivePaper&#45;prototype/CWL/Workflows/multi_workflow.cwl#reci_20m</title>
<path fill="none" stroke="black" d="M2382,-188.34C2382,-179.56 2382,-168.66 2382,-158.77"/>
<polygon fill="black" stroke="black" points="2385.5,-158.57 2382,-148.57 2378.5,-158.57 2385.5,-158.57"/>
</g>
<!-- file:///Users/eller/Projects/LivePaper&#45;prototype/CWL/Workflows/multi_workflow.cwl#color_reci_20m -->
<g id="node35" class="node">
<title>file:///Users/eller/Projects/LivePaper&#45;prototype/CWL/Workflows/multi_workflow.cwl#color_reci_20m</title>
<polygon fill="#94ddf4" stroke="black" points="2577.5,-188.5 2577.5,-224.5 2680.5,-224.5 2680.5,-188.5 2577.5,-188.5"/>
<text text-anchor="middle" x="2629" y="-202.8" font-family="Times,serif" font-size="14.00">color_reci_20m</text>
</g>
<!-- file:///Users/eller/Projects/LivePaper&#45;prototype/CWL/Workflows/multi_workflow.cwl#color_reci_20m&#45;&gt;file:///Users/eller/Projects/LivePaper&#45;prototype/CWL/Workflows/multi_workflow.cwl#reci_20m_tiff -->
<g id="edge28" class="edge">
<title>file:///Users/eller/Projects/LivePaper&#45;prototype/CWL/Workflows/multi_workflow.cwl#color_reci_20m&#45;&gt;file:///Users/eller/Projects/LivePaper&#45;prototype/CWL/Workflows/multi_workflow.cwl#reci_20m_tiff</title>
<path fill="none" stroke="black" d="M2611.63,-188.49C2600.29,-178.17 2584.71,-165.4 2569,-157 2509.88,-125.36 2490.76,-125.09 2425,-112 2230.49,-73.29 1994.45,-62.55 1888.39,-59.6"/>
<polygon fill="black" stroke="black" points="1888.32,-56.1 1878.23,-59.33 1888.14,-63.1 1888.32,-56.1"/>
</g>
</g>
</svg>
