<?xml version="1.0" encoding="UTF-8" standalone="no"?>
<!DOCTYPE svg PUBLIC "-//W3C//DTD SVG 1.1//EN"
 "http://www.w3.org/Graphics/SVG/1.1/DTD/svg11.dtd">
<!-- Generated by graphviz version 2.50.0 (20211204.2007)
 -->
<!-- Title: G Pages: 1 -->
<svg width="244pt" height="322pt"
 viewBox="0.00 0.00 244.00 322.00" xmlns="http://www.w3.org/2000/svg" xmlns:xlink="http://www.w3.org/1999/xlink">
<g id="graph0" class="graph" transform="scale(1 1) rotate(0) translate(4 318)">
<title>G</title>
<polygon fill="#eeeeee" stroke="transparent" points="-4,4 -4,-318 240,-318 240,4 -4,4"/>
<g id="clust1" class="cluster">
<title>cluster_inputs</title>
<polygon fill="#eeeeee" stroke="black" stroke-dasharray="5,2" points="14,-230 14,-306 228,-306 228,-230 14,-230"/>
<text text-anchor="middle" x="173.5" y="-237.8" font-family="Times,serif" font-size="14.00">Workflow Inputs</text>
</g>
<g id="clust2" class="cluster">
<title>cluster_outputs</title>
<polygon fill="#eeeeee" stroke="black" stroke-dasharray="5,2" points="8,-8 8,-84 174,-84 174,-8 8,-8"/>
<text text-anchor="middle" x="115" y="-15.8" font-family="Times,serif" font-size="14.00">Workflow Outputs</text>
</g>
<!-- file:///Users/eller/Projects/LivePaper&#45;prototype/CWL/Workflows/workflow.cwl#index_def -->
<g id="node1" class="node">
<title>file:///Users/eller/Projects/LivePaper&#45;prototype/CWL/Workflows/workflow.cwl#index_def</title>
<polygon fill="lightgoldenrodyellow" stroke="black" points="88.5,-185.5 88.5,-221.5 159.5,-221.5 159.5,-185.5 88.5,-185.5"/>
<text text-anchor="middle" x="124" y="-199.8" font-family="Times,serif" font-size="14.00">index_def</text>
</g>
<!-- file:///Users/eller/Projects/LivePaper&#45;prototype/CWL/Workflows/workflow.cwl#tiff_gen -->
<g id="node2" class="node">
<title>file:///Users/eller/Projects/LivePaper&#45;prototype/CWL/Workflows/workflow.cwl#tiff_gen</title>
<polygon fill="lightgoldenrodyellow" stroke="black" points="19.5,-112.5 19.5,-148.5 78.5,-148.5 78.5,-112.5 19.5,-112.5"/>
<text text-anchor="middle" x="49" y="-126.8" font-family="Times,serif" font-size="14.00">tiff_gen</text>
</g>
<!-- file:///Users/eller/Projects/LivePaper&#45;prototype/CWL/Workflows/workflow.cwl#index_def&#45;&gt;file:///Users/eller/Projects/LivePaper&#45;prototype/CWL/Workflows/workflow.cwl#tiff_gen -->
<g id="edge1" class="edge">
<title>file:///Users/eller/Projects/LivePaper&#45;prototype/CWL/Workflows/workflow.cwl#index_def&#45;&gt;file:///Users/eller/Projects/LivePaper&#45;prototype/CWL/Workflows/workflow.cwl#tiff_gen</title>
<path fill="none" stroke="black" d="M105.84,-185.31C96.45,-176.42 84.82,-165.41 74.53,-155.67"/>
<polygon fill="black" stroke="black" points="76.66,-152.86 66.99,-148.53 71.84,-157.95 76.66,-152.86"/>
</g>
<!-- file:///Users/eller/Projects/LivePaper&#45;prototype/CWL/Workflows/workflow.cwl#all_outputs -->
<g id="node6" class="node">
<title>file:///Users/eller/Projects/LivePaper&#45;prototype/CWL/Workflows/workflow.cwl#all_outputs</title>
<polygon fill="#94ddf4" stroke="black" points="88.5,-39.5 88.5,-75.5 165.5,-75.5 165.5,-39.5 88.5,-39.5"/>
<text text-anchor="middle" x="127" y="-53.8" font-family="Times,serif" font-size="14.00">all_outputs</text>
</g>
<!-- file:///Users/eller/Projects/LivePaper&#45;prototype/CWL/Workflows/workflow.cwl#index_def&#45;&gt;file:///Users/eller/Projects/LivePaper&#45;prototype/CWL/Workflows/workflow.cwl#all_outputs -->
<g id="edge5" class="edge">
<title>file:///Users/eller/Projects/LivePaper&#45;prototype/CWL/Workflows/workflow.cwl#index_def&#45;&gt;file:///Users/eller/Projects/LivePaper&#45;prototype/CWL/Workflows/workflow.cwl#all_outputs</title>
<path fill="none" stroke="black" d="M124.36,-185.42C124.87,-160.84 125.82,-115.25 126.43,-85.93"/>
<polygon fill="black" stroke="black" points="129.94,-85.63 126.64,-75.56 122.94,-85.49 129.94,-85.63"/>
</g>
<!-- file:///Users/eller/Projects/LivePaper&#45;prototype/CWL/Workflows/workflow.cwl#tiff -->
<g id="node7" class="node">
<title>file:///Users/eller/Projects/LivePaper&#45;prototype/CWL/Workflows/workflow.cwl#tiff</title>
<polygon fill="#94ddf4" stroke="black" points="16,-39.5 16,-75.5 70,-75.5 70,-39.5 16,-39.5"/>
<text text-anchor="middle" x="43" y="-53.8" font-family="Times,serif" font-size="14.00">tiff</text>
</g>
<!-- file:///Users/eller/Projects/LivePaper&#45;prototype/CWL/Workflows/workflow.cwl#tiff_gen&#45;&gt;file:///Users/eller/Projects/LivePaper&#45;prototype/CWL/Workflows/workflow.cwl#tiff -->
<g id="edge6" class="edge">
<title>file:///Users/eller/Projects/LivePaper&#45;prototype/CWL/Workflows/workflow.cwl#tiff_gen&#45;&gt;file:///Users/eller/Projects/LivePaper&#45;prototype/CWL/Workflows/workflow.cwl#tiff</title>
<path fill="none" stroke="black" d="M47.55,-112.31C46.87,-104.29 46.05,-94.55 45.29,-85.57"/>
<polygon fill="black" stroke="black" points="48.77,-85.2 44.44,-75.53 41.79,-85.79 48.77,-85.2"/>
</g>
<!-- file:///Users/eller/Projects/LivePaper&#45;prototype/CWL/Workflows/workflow.cwl#bands -->
<g id="node3" class="node">
<title>file:///Users/eller/Projects/LivePaper&#45;prototype/CWL/Workflows/workflow.cwl#bands</title>
<polygon fill="#94ddf4" stroke="black" points="166,-261.5 166,-297.5 220,-297.5 220,-261.5 166,-261.5"/>
<text text-anchor="middle" x="193" y="-275.8" font-family="Times,serif" font-size="14.00">bands</text>
</g>
<!-- file:///Users/eller/Projects/LivePaper&#45;prototype/CWL/Workflows/workflow.cwl#bands&#45;&gt;file:///Users/eller/Projects/LivePaper&#45;prototype/CWL/Workflows/workflow.cwl#index_def -->
<g id="edge2" class="edge">
<title>file:///Users/eller/Projects/LivePaper&#45;prototype/CWL/Workflows/workflow.cwl#bands&#45;&gt;file:///Users/eller/Projects/LivePaper&#45;prototype/CWL/Workflows/workflow.cwl#index_def</title>
<path fill="none" stroke="black" d="M182.05,-261.44C175.4,-251.71 166.4,-239.58 157,-230 156.47,-229.46 155.92,-228.92 155.37,-228.38"/>
<polygon fill="black" stroke="black" points="157.54,-225.63 147.75,-221.57 152.88,-230.85 157.54,-225.63"/>
</g>
<!-- file:///Users/eller/Projects/LivePaper&#45;prototype/CWL/Workflows/workflow.cwl#index -->
<g id="node4" class="node">
<title>file:///Users/eller/Projects/LivePaper&#45;prototype/CWL/Workflows/workflow.cwl#index</title>
<polygon fill="#94ddf4" stroke="black" points="94,-261.5 94,-297.5 148,-297.5 148,-261.5 94,-261.5"/>
<text text-anchor="middle" x="121" y="-275.8" font-family="Times,serif" font-size="14.00">index</text>
</g>
<!-- file:///Users/eller/Projects/LivePaper&#45;prototype/CWL/Workflows/workflow.cwl#index&#45;&gt;file:///Users/eller/Projects/LivePaper&#45;prototype/CWL/Workflows/workflow.cwl#index_def -->
<g id="edge3" class="edge">
<title>file:///Users/eller/Projects/LivePaper&#45;prototype/CWL/Workflows/workflow.cwl#index&#45;&gt;file:///Users/eller/Projects/LivePaper&#45;prototype/CWL/Workflows/workflow.cwl#index_def</title>
<path fill="none" stroke="black" d="M121.7,-261.34C122.05,-252.56 122.49,-241.66 122.89,-231.77"/>
<polygon fill="black" stroke="black" points="126.4,-231.7 123.31,-221.57 119.41,-231.42 126.4,-231.7"/>
</g>
<!-- file:///Users/eller/Projects/LivePaper&#45;prototype/CWL/Workflows/workflow.cwl#color -->
<g id="node5" class="node">
<title>file:///Users/eller/Projects/LivePaper&#45;prototype/CWL/Workflows/workflow.cwl#color</title>
<polygon fill="#94ddf4" stroke="black" points="22,-261.5 22,-297.5 76,-297.5 76,-261.5 22,-261.5"/>
<text text-anchor="middle" x="49" y="-275.8" font-family="Times,serif" font-size="14.00">color</text>
</g>
<!-- file:///Users/eller/Projects/LivePaper&#45;prototype/CWL/Workflows/workflow.cwl#color&#45;&gt;file:///Users/eller/Projects/LivePaper&#45;prototype/CWL/Workflows/workflow.cwl#tiff_gen -->
<g id="edge4" class="edge">
<title>file:///Users/eller/Projects/LivePaper&#45;prototype/CWL/Workflows/workflow.cwl#color&#45;&gt;file:///Users/eller/Projects/LivePaper&#45;prototype/CWL/Workflows/workflow.cwl#tiff_gen</title>
<path fill="none" stroke="black" d="M49,-261.35C49,-236.12 49,-188.76 49,-158.74"/>
<polygon fill="black" stroke="black" points="52.5,-158.54 49,-148.54 45.5,-158.54 52.5,-158.54"/>
</g>
</g>
</svg>
